<?xml version="1.0" encoding="utf-8"?>
<svg viewBox="0 0 200 200" xmlns="http://www.w3.org/2000/svg">
	<circle cx="100" cy="100" r="100" fill="#00985f"/>
	<path
		d="m150.23853 140.80632c-1.4355 3.14413-4.66523 5.87989-9.68847 8.20548-5.02436 2.3256-9.4859 3.4882-13.38326 3.4882-1.09394 0-2.25647-0.0845-3.48649-0.25536-1.23043-0.17205-2.27121-0.3419-3.1256-0.51289-0.85403-0.17096-1.98351-0.47805-3.38344-0.92306-1.40243-0.44321-2.4116-0.7862-3.02467-1.02506-0.61699-0.23847-1.74397-0.66589-3.38342-1.28076-1.64091-0.61706-2.66733-0.99311-3.07495-1.12706-11.210471-4.10416-22.166327-11.50333-32.863606-22.2014-10.697267-10.7006-18.097297-21.65476-22.19901-32.864303-0.135753-0.410527-0.511772-1.436294-1.127695-3.076236-0.614843-1.639589-1.043292-2.768447-1.282477-3.382979-0.237752-0.615254-0.580008-1.623784-1.024625-3.024174-0.444246-1.401809-0.750956-2.528868-0.922261-3.384396-0.171666-0.853387-0.341183-1.895315-0.51249-3.126175-0.170949-1.230861-0.256066-2.39455-0.256066-3.487489 0-3.896938 1.162533-8.357409 3.487226-13.382116 2.32434-5.023998 5.058097-8.253973 8.203067-9.689901 3.622977-1.504544 7.075009-2.256641 10.356448-2.256641 0.750954 0 1.298644 0.069 1.639459 0.205449 0.342263 0.138273 0.906462 0.75208 1.692975 1.846099 0.786516 1.094019 1.640545 2.477881 2.563166 4.153019 0.922988 1.675506 1.828729 3.299291 2.717236 4.870997 0.888503 1.57206 1.743257 3.126532 2.563886 4.665903 0.82027 1.536878 1.332759 2.512366 1.537468 2.921095 0.205064 0.343723 0.649679 0.992017 1.332757 1.949902 0.683078 0.956454 1.197008 1.809827 1.538183 2.562646 0.341183 0.752082 0.512498 1.470059 0.512498 2.153549 0 1.026843-0.701403 2.273863-2.102394 3.742491-1.401715 1.47006-2.939905 2.82088-4.614919 4.05174-1.675022 1.230863-3.212488 2.547195-4.613842 3.948664-1.400283 1.400375-2.101677 2.545395-2.101677 3.434319 0 0.478779 0.119595 1.042309 0.35914 1.691666 0.239185 0.650819 0.461493 1.180585 0.666556 1.590035 0.205071 0.409804 0.530452 0.991293 0.973981 1.744097 0.444255 0.752806 0.735515 1.230864 0.871273 1.436303 3.759091 6.767746 8.083465 12.595906 12.969896 17.484496 4.88858 4.88931 10.715244 9.21185 17.483537 12.97195 0.20363 0.13793 0.68309 0.42776 1.43801 0.87278 0.75095 0.44249 1.33346 0.76716 1.74288 0.97224 0.41049 0.2051 0.93879 0.42777 1.58919 0.66518 0.65041 0.2385 1.21424 0.3588 1.69476 0.3588 1.09036 0 2.59477-1.12705 4.51078-3.3826 1.91348-2.2577 3.86288-4.49604 5.84534-6.71819 1.98097-2.22 3.58597-3.33091 4.81889-3.33091 0.68307 0 1.39955 0.16993 2.15445 0.51147 0.7524 0.34158 1.605 0.85554 2.56138 1.53867 0.95856 0.68598 1.60751 1.1285 1.9494 1.33644l5.43197 2.97068c3.62332 1.91504 6.64799 3.60637 9.07541 5.07643s3.74362 2.47788 3.94906 3.0238c0.13608 0.34156 0.20256 0.89 0.20256 1.6421-2e-3 3.27844-0.7549 6.73111-2.26147 10.34501z"
		fill="#fff"/>
</svg>
