<?xml version="1.0" encoding="utf-8"?>
<svg viewBox="0 0 200 200" xmlns="http://www.w3.org/2000/svg">
	<path
		d="m180.31239 52.545479-32.88695-32.859676c-12.6692-12.70987-29.51671-19.685803-47.440363-19.685803-17.90559 0-34.75313 6.975933-47.45626 19.687803l-32.855017 32.859676c-12.70114 12.68186-19.6738 29.53769-19.6738 47.45151 0 17.911831 6.97066 34.759721 19.6738 47.443581l32.855017 32.85166c12.70313 12.73383 29.55067 19.70577 47.45626 19.70577 17.425623 0 33.977163-6.67192 46.546283-18.76376l0.0839-0.0639 0.0639-0.0839 33.63106-33.64369c12.70314-12.68387 19.68979-29.53292 19.68979-47.444751 2e-3 -17.91584-6.98464-34.77043-19.68782-47.4543zm-21.86993 71.229281-33.33309 33.31366c-6.24457 6.01194-14.76729 9.70991-24.08216 9.70991-9.580883 0-18.253643-3.87999-24.548223-10.13991l16.20344-16.25382c2.13222 2.14798 5.09049 3.48597 8.344783 3.48597 3.25429 0 6.21056-1.33799 8.32274-3.48597l32.90502-32.83365c2.09817-2.13 3.43631-5.09598 3.43631-8.341911 0-3.27799-1.33814-6.20796-3.43631-8.32392-2.14624-2.12202-5.08652-3.45797-8.37479-3.45797-3.23629 0-6.17654 1.33795-8.30872 3.45797l-32.889033 32.869641c-6.29053 6.25995-14.96334 10.17396-24.52622 10.17396-9.58283 0-18.25364-3.91401-24.54625-10.17396-6.292527-6.29194-10.158907-14.96181-10.158907-24.543721 0-9.56992 3.86437-18.24185 10.158907-24.5418l32.87103-32.85166c6.29454-6.26793 14.96735-10.207897 24.548223-10.207897 9.56289 0 18.25168 3.939967 24.54425 10.207897l-16.2215 16.17785c-2.11219-2.12397-5.06842-3.43596-8.32275-3.43596-3.254323 0-6.212603 1.31199-8.344743 3.43596l-32.87099 32.88969c-2.1142 2.11596-3.43631 5.04593-3.43631 8.32392 0 3.245931 1.32211 6.209911 3.43631 8.341911 2.13017 2.12995 5.07045 3.43598 8.34273 3.43598 3.2683 0 6.19256-1.30404 8.32278-3.43598l32.870963-32.883681c6.31261-6.26793 14.96739-10.16591 24.53023-10.16591 9.58088 0 18.26967 3.89798 24.56228 10.16591 6.27651 6.29991 10.17487 14.97185 10.17487 24.54177 2e-3 9.581891-3.89836 18.251791-10.17487 24.545721z"
		fill="#6c6"/>
</svg>
