<?xml version="1.0" encoding="UTF-8" standalone="no"?>
<!-- Created with Inkscape (http://www.inkscape.org/) -->

<svg
	 xmlns:dc="http://purl.org/dc/elements/1.1/"
	 xmlns:cc="http://creativecommons.org/ns#"
	 xmlns:rdf="http://www.w3.org/1999/02/22-rdf-syntax-ns#"
	 xmlns:svg="http://www.w3.org/2000/svg"
	 xmlns="http://www.w3.org/2000/svg"
	 viewBox="0 0 200 200"
	 version="1.1"
	 id="svg3025">
	<defs
		 id="defs3027" />
	<metadata
		 id="metadata3030">
		<rdf:RDF>
			<cc:Work
				 rdf:about="">
				<dc:format>image/svg+xml</dc:format>
				<dc:type
					 rdf:resource="http://purl.org/dc/dcmitype/StillImage" />
				<dc:title></dc:title>
			</cc:Work>
		</rdf:RDF>
	</metadata>
	<g
		 transform="translate(194.28571,-643.79076)"
		 id="layer1">
		<g
			 transform="matrix(5.8823528,0,0,5.8823528,-294.28571,543.79076)"
			 id="g3316">
			<path
				 d="m 36.1,17.1 v 17.5 0 l 0,0 c 0,0.8 -0.6,1.4 -1.4,1.4 h -2.1 l 0,0 c -0.1,0 -0.2,0.1 -0.2,0.2 v 14.7 c 0.5,0 1,0.1 1.6,0.1 9.4,0 17,-7.6 17,-17 0,-8.7 -6.5,-15.9 -14.9,-16.9 z m -0.4,26.2 c -1.2,0 -2.1,-1 -2.1,-2.1 0,-1.2 1,-2.1 2.1,-2.1 1.2,0 2.1,1 2.1,2.1 0.1,1.1 -0.9,2.1 -2.1,2.1 z m 5,0 c -1.2,0 -2.1,-1 -2.1,-2.1 0,-1.2 1,-2.1 2.1,-2.1 1.2,0 2.1,1 2.1,2.1 0,1.1 -0.9,2.1 -2.1,2.1 z m 5,0 c -1.2,0 -2.1,-1 -2.1,-2.1 0,-1.2 1,-2.1 2.1,-2.1 1.2,0 2.1,1 2.1,2.1 0,1.1 -0.9,2.1 -2.1,2.1 z"
				 id="path3318"
				 style="fill:#00985f" />
			<path
				 d="m 34,17 c -9.4,0 -17,7.6 -17,17 0,8.2 5.7,15 13.4,16.6 V 35.3 h 0 c 0,-0.7 0.6,-1.3 1.3,-1.4 l 0,0 h 0.7 1.4 c 0.1,0 0.2,-0.1 0.2,-0.2 l 0,-16.7 0,0 z m -3.3,14 c -1.2,0 -2.1,-1 -2.1,-2.1 0,-1.2 1,-2.1 2.1,-2.1 1.2,0 2.1,1 2.1,2.1 0,1.1 -0.9,2.1 -2.1,2.1 z"
				 id="path3320"
				 style="fill:#00985f" />
		</g>
	</g>
</svg>
