<?xml version="1.0" encoding="UTF-8" standalone="no"?>
<!-- Created with Inkscape (http://www.inkscape.org/) -->

<svg
	 xmlns:dc="http://purl.org/dc/elements/1.1/"
	 xmlns:cc="http://creativecommons.org/ns#"
	 xmlns:rdf="http://www.w3.org/1999/02/22-rdf-syntax-ns#"
	 xmlns:svg="http://www.w3.org/2000/svg"
	 xmlns="http://www.w3.org/2000/svg"
	 xmlns:sodipodi="http://sodipodi.sourceforge.net/DTD/sodipodi-0.dtd"
	 xmlns:inkscape="http://www.inkscape.org/namespaces/inkscape"
	 viewBox="0 0 200 200"
	 version="1.1"
	 id="svg3025">
	<sodipodi:namedview
		 pagecolor="#ffffff"
		 bordercolor="#666666"
		 borderopacity="1"
		 objecttolerance="10"
		 gridtolerance="10"
		 guidetolerance="10"
		 inkscape:pageopacity="0"
		 inkscape:pageshadow="2"
		 inkscape:window-width="1317"
		 inkscape:window-height="744"
		 id="namedview9"
		 showgrid="false"
		 inkscape:zoom="1.668772"
		 inkscape:cx="45.95445"
		 inkscape:cy="74.39963"
		 inkscape:window-x="49"
		 inkscape:window-y="24"
		 inkscape:window-maximized="1"
		 inkscape:current-layer="svg3025" />
	<defs
		 id="defs3027" />
	<metadata
		 id="metadata3030">
		<rdf:RDF>
			<cc:Work
				 rdf:about="">
				<dc:format>image/svg+xml</dc:format>
				<dc:type
					 rdf:resource="http://purl.org/dc/dcmitype/StillImage" />
				<dc:title />
			</cc:Work>
		</rdf:RDF>
	</metadata>
	<path
		 sodipodi:type="arc"
		 style="fill:#00985f;fill-opacity:1;fill-rule:evenodd;stroke:#000000;stroke-width:0;stroke-linecap:round;stroke-linejoin:round;stroke-miterlimit:4;stroke-dasharray:none"
		 id="path2985"
		 sodipodi:cx="87.789108"
		 sodipodi:cy="93.33474"
		 sodipodi:rx="137.52628"
		 sodipodi:ry="130.63498"
		 d="m 225.31538,93.33474 a 137.52628,130.63498 0 1 1 -275.052547,0 137.52628,130.63498 0 1 1 275.052547,0 z"
		 transform="matrix(0.72713378,0,0,0.76549176,36.165574,28.553026)" />
	<path
		 id="path5-3-6"
		 d="m 150.23853,140.80632 c -1.4355,3.14413 -4.66523,5.87989 -9.68847,8.20548 -5.02436,2.3256 -9.4859,3.4882 -13.38326,3.4882 -1.09394,0 -2.25647,-0.0845 -3.48649,-0.25536 -1.23043,-0.17205 -2.27121,-0.3419 -3.1256,-0.51289 -0.85403,-0.17096 -1.98351,-0.47805 -3.38344,-0.92306 -1.40243,-0.44321 -2.4116,-0.7862 -3.02467,-1.02506 -0.61699,-0.23847 -1.74397,-0.66589 -3.38342,-1.28076 -1.64091,-0.61706 -2.66733,-0.99311 -3.07495,-1.12706 C 96.477759,143.27165 85.521903,135.87248 74.824624,125.17441 64.127357,114.47381 56.727327,103.51965 52.625614,92.310107 52.489861,91.89958 52.113842,90.873813 51.497919,89.233871 50.883076,87.594282 50.454627,86.465424 50.215442,85.850892 49.97769,85.235638 49.635434,84.227108 49.190817,82.826718 48.746571,81.424909 48.439861,80.29785 48.268556,79.442322 48.09689,78.588935 47.927373,77.547007 47.756066,76.316147 47.585117,75.085286 47.5,73.921597 47.5,72.828658 c 0,-3.896938 1.162533,-8.357409 3.487226,-13.382116 2.32434,-5.023998 5.058097,-8.253973 8.203067,-9.689901 C 62.81327,48.252097 66.265302,47.5 69.546741,47.5 c 0.750954,0 1.298644,0.069 1.639459,0.205449 0.342263,0.138273 0.906462,0.75208 1.692975,1.846099 0.786516,1.094019 1.640545,2.477881 2.563166,4.153019 0.922988,1.675506 1.828729,3.299291 2.717236,4.870997 0.888503,1.57206 1.743257,3.126532 2.563886,4.665903 0.82027,1.536878 1.332759,2.512366 1.537468,2.921095 0.205064,0.343723 0.649679,0.992017 1.332757,1.949902 0.683078,0.956454 1.197008,1.809827 1.538183,2.562646 0.341183,0.752082 0.512498,1.470059 0.512498,2.153549 0,1.026843 -0.701403,2.273863 -2.102394,3.742491 -1.401715,1.47006 -2.939905,2.82088 -4.614919,4.05174 -1.675022,1.230863 -3.212488,2.547195 -4.613842,3.948664 -1.400283,1.400375 -2.101677,2.545395 -2.101677,3.434319 0,0.478779 0.119595,1.042309 0.35914,1.691666 0.239185,0.650819 0.461493,1.180585 0.666556,1.590035 0.205071,0.409804 0.530452,0.991293 0.973981,1.744097 0.444255,0.752806 0.735515,1.230864 0.871273,1.436303 3.759091,6.767746 8.083465,12.595906 12.969896,17.484496 4.88858,4.88931 10.715244,9.21185 17.483537,12.97195 0.20363,0.13793 0.68309,0.42776 1.43801,0.87278 0.75095,0.44249 1.33346,0.76716 1.74288,0.97224 0.41049,0.2051 0.93879,0.42777 1.58919,0.66518 0.65041,0.2385 1.21424,0.3588 1.69476,0.3588 1.09036,0 2.59477,-1.12705 4.51078,-3.3826 1.91348,-2.2577 3.86288,-4.49604 5.84534,-6.71819 1.98097,-2.22 3.58597,-3.33091 4.81889,-3.33091 0.68307,0 1.39955,0.16993 2.15445,0.51147 0.7524,0.34158 1.605,0.85554 2.56138,1.53867 0.95856,0.68598 1.60751,1.1285 1.9494,1.33644 l 5.43197,2.97068 c 3.62332,1.91504 6.64799,3.60637 9.07541,5.07643 2.42742,1.47006 3.74362,2.47788 3.94906,3.0238 0.13608,0.34156 0.20256,0.89 0.20256,1.6421 -0.002,3.27844 -0.7549,6.73111 -2.26147,10.34501 z"
		 inkscape:connector-curvature="0"
		 sodipodi:nodetypes="ccscccccccccccccsscscsccccccscssscccccccccsccsccccsccc"
		 style="fill:#ffffff" />
</svg>
