<?xml version="1.0" encoding="UTF-8" standalone="no"?>
<!-- Created with Inkscape (http://www.inkscape.org/) -->

<svg
	 xmlns:dc="http://purl.org/dc/elements/1.1/"
	 xmlns:cc="http://creativecommons.org/ns#"
	 xmlns:rdf="http://www.w3.org/1999/02/22-rdf-syntax-ns#"
	 xmlns:svg="http://www.w3.org/2000/svg"
	 xmlns="http://www.w3.org/2000/svg"
	 viewBox="0 0 40 36"
	 version="1.1"
	 id="svg2994">
	<defs
		 id="defs2996" />
	<metadata
		 id="metadata2999">
		<rdf:RDF>
			<cc:Work
				 rdf:about="">
				<dc:format>image/svg+xml</dc:format>
				<dc:type
					 rdf:resource="http://purl.org/dc/dcmitype/StillImage" />
				<dc:title />
			</cc:Work>
		</rdf:RDF>
	</metadata>
	<g
		 transform="translate(-805.71429,-328.6479)"
		 id="layer1">
		<path
			 d="m 839.71429,338.6479 h -28 c -3.32,0 -6,2.68 -6,6 v 12 h 8 v 8 h 24 v -8 h 8 v -12 c 0,-3.32 -2.68,-6 -6,-6 z m -6,22 h -16 v -10 h 16 v 10 z m 6,-14 c -1.1,0 -2,-0.9 -2,-2 0,-1.1 0.9,-2 2,-2 1.1,0 2,0.9 2,2 0,1.1 -0.9,2 -2,2 z m -2,-18 h -24 v 8 h 24 v -8 z"
			 id="path4"
			 style="fill:#ffffff" />
	</g>
</svg>
