<?xml version="1.0" encoding="UTF-8" standalone="no"?>
<!-- Created with Inkscape (http://www.inkscape.org/) -->

<svg
	 xmlns:dc="http://purl.org/dc/elements/1.1/"
	 xmlns:cc="http://creativecommons.org/ns#"
	 xmlns:rdf="http://www.w3.org/1999/02/22-rdf-syntax-ns#"
	 xmlns:svg="http://www.w3.org/2000/svg"
	 xmlns="http://www.w3.org/2000/svg"
	 viewBox="0 0 200 200"
	 version="1.1"
	 id="svg3005">
	<defs
		 id="defs3007" />
	<metadata
		 id="metadata3010">
		<rdf:RDF>
			<cc:Work
				 rdf:about="">
				<dc:format>image/svg+xml</dc:format>
				<dc:type
					 rdf:resource="http://purl.org/dc/dcmitype/StillImage" />
				<dc:title />
			</cc:Work>
		</rdf:RDF>
	</metadata>
	<g
		 transform="translate(-273.3426,-282.16313)"
		 id="layer1">
		<path
			 d="m 453.65483,334.7086 -32.88696,-32.85967 c -12.66914,-12.70987 -29.51666,-19.6858 -47.44027,-19.6858 -17.90561,0 -34.75313,6.97593 -47.45627,19.6878 l -32.85496,32.85967 c -12.70114,12.68188 -19.67377,29.53771 -19.67377,47.45153 0,17.91182 6.97063,34.75965 19.67377,47.44353 l 32.85496,32.85167 c 12.70314,12.73387 29.55066,19.7058 47.45627,19.7058 17.42557,0 33.97706,-6.67193 46.54619,-18.76381 l 0.084,-0.064 0.064,-0.084 33.63103,-33.64366 c 12.70314,-12.68388 19.68977,-29.53171 19.68977,-47.44355 0.002,-17.9158 -6.98463,-34.77163 -19.68777,-47.45551 z m -21.86997,71.22929 -33.333,33.31367 c -6.24456,6.01194 -14.76733,9.7099 -24.08217,9.7099 -9.58086,0 -18.25364,-3.87996 -24.54821,-10.1399 l 16.20346,-16.25383 c 2.13219,2.14797 5.09046,3.48596 8.34475,3.48596 3.2543,0 6.21056,-1.33799 8.32275,-3.48596 l 32.90496,-32.83368 c 2.09819,-2.12999 3.43631,-5.09596 3.43631,-8.34191 0,-3.27797 -1.33812,-6.20794 -3.43631,-8.32392 -2.14619,-2.12198 -5.08646,-3.45796 -8.37475,-3.45796 -3.23629,0 -6.17656,1.33798 -8.30875,3.45796 l -32.88896,32.86967 c -6.29056,6.25994 -14.96335,10.1739 -24.52621,10.1739 -9.58286,0 -18.25364,-3.91396 -24.54621,-10.1739 -6.29256,-6.29193 -10.15891,-14.96185 -10.15891,-24.54375 0,-9.56991 3.86435,-18.24182 10.15891,-24.54176 l 32.87096,-32.85167 c 6.29457,-6.26794 14.96735,-10.2079 24.54821,-10.2079 9.56286,0 18.25165,3.93996 24.54421,10.2079 l -16.22146,16.17784 c -2.11219,-2.12398 -5.06845,-3.43597 -8.32275,-3.43597 -3.25429,0 -6.21256,1.31199 -8.34475,3.43597 l -32.87096,32.88967 c -2.11419,2.11598 -3.43631,5.04595 -3.43631,8.32392 0,3.24595 1.32212,6.20992 3.43631,8.34191 2.13019,2.12998 5.07046,3.43597 8.34275,3.43597 3.2683,0 6.19256,-1.30399 8.32275,-3.43597 l 32.87096,-32.88367 c 6.31257,-6.26793 14.96735,-10.1659 24.53021,-10.1659 9.58086,0 18.26964,3.89797 24.56221,10.1659 6.27656,6.29994 10.17492,14.97185 10.17492,24.54176 0.002,9.5819 -3.89836,18.25182 -10.17492,24.54575 z"
			 id="path5"
			 style="fill:#66cc66;fill-opacity:1;fill-rule:nonzero" />
	</g>
</svg>
