<?xml version="1.0" encoding="UTF-8" standalone="no"?>
<!-- Created with Inkscape (http://www.inkscape.org/) -->

<svg
	 xmlns:dc="http://purl.org/dc/elements/1.1/"
	 xmlns:cc="http://creativecommons.org/ns#"
	 xmlns:rdf="http://www.w3.org/1999/02/22-rdf-syntax-ns#"
	 xmlns:svg="http://www.w3.org/2000/svg"
	 xmlns="http://www.w3.org/2000/svg"
	 viewBox="0 0 200 200"
	 version="1.1"
	 id="svg3000">
	<defs
		 id="defs3002" />
	<metadata
		 id="metadata3005">
		<rdf:RDF>
			<cc:Work
				 rdf:about="">
				<dc:format>image/svg+xml</dc:format>
				<dc:type
					 rdf:resource="http://purl.org/dc/dcmitype/StillImage" />
				<dc:title />
			</cc:Work>
		</rdf:RDF>
	</metadata>
	<g
		 transform="translate(-295.76513,-642.31134)"
		 id="layer1">
		<g
			 transform="matrix(0.80492699,0,0,0.80492699,295.76513,642.31134)"
			 id="g2983">
			<path
				 d="m 248.46974,124.23487 c 0,68.61302 -55.62185,124.23487 -124.23487,124.23487 C 55.621846,248.46974 0,192.84789 0,124.23487 0,55.621847 55.621846,0 124.23487,0 192.84789,0 248.46974,55.621847 248.46974,124.23487 z"
				 id="path3019"
				 style="fill:#2ca5e0;fill-opacity:1;stroke:none" />
			<path
				 d="m 151.66937,152.61518 c 3.82213,-10.4461 17.81729,-50.17266 20.06432,-60.591795 2.54062,-11.780443 -2.77796,-12.930544 -14.87454,-8.979356 -12.09657,3.951189 -43.11909,15.449414 -48.34049,17.302711 -5.2214,1.8533 -30.641434,10.39687 -35.911663,12.9461 -10.764524,5.77386 -5.528019,14.58535 6.505791,19.16062 35.967682,17.26467 25.754702,8.46685 41.812422,40.41274 3.30464,8.16089 11.09674,22.06171 18.5597,11.55404 3.92326,-5.97624 9.17875,-23.5903 12.18446,-31.80506 z"
				 id="path3043"
				 style="fill:#ffffff;fill-opacity:1;stroke:none" />
		</g>
	</g>
</svg>
