<?xml version="1.0" encoding="UTF-8" standalone="no"?>
<!-- Created with Inkscape (http://www.inkscape.org/) -->

<svg
	 xmlns:dc="http://purl.org/dc/elements/1.1/"
	 xmlns:cc="http://creativecommons.org/ns#"
	 xmlns:rdf="http://www.w3.org/1999/02/22-rdf-syntax-ns#"
	 xmlns:svg="http://www.w3.org/2000/svg"
	 xmlns="http://www.w3.org/2000/svg"
	 viewBox="0 0 200 200"
	 version="1.1"
	 id="svg3017">
	<defs
		 id="defs3019" />
	<metadata
		 id="metadata3022">
		<rdf:RDF>
			<cc:Work
				 rdf:about="">
				<dc:format>image/svg+xml</dc:format>
				<dc:type
					 rdf:resource="http://purl.org/dc/dcmitype/StillImage" />
				<dc:title />
			</cc:Work>
		</rdf:RDF>
	</metadata>
	<g
		 transform="translate(-88.57141,-320.93404)"
		 id="layer1">
		<path
			 d="m 106.3747,328.90638 c -9.83753,0 -17.80329,7.97431 -17.80329,17.80095 v 164.3973 c 0,0.62341 0.0358,1.25149 0.0957,1.85855 6.61543,-2.46483 13.63868,-5.15926 21.05575,-8.12219 51.62836,-20.60901 93.83714,-38.13134 93.87527,-57.91614 0,-0.63352 -0.0436,-1.27327 -0.13386,-1.91303 -2.66952,-19.53341 -49.34877,-25.58924 -49.28417,-34.54109 0.005,-0.47553 0.14009,-0.97286 0.4265,-1.47018 5.60755,-9.82119 27.81827,-9.3511 35.99805,-10.04534 8.18679,-0.71057 27.40033,-0.56347 28.32882,-6.41618 0.0272,-0.18057 0.0444,-0.36035 0.0444,-0.54091 0.0218,-5.43788 -13.21296,-7.56961 -13.21296,-7.56961 0,0 16.05993,2.39946 16.01634,8.64676 0,0.30586 -0.0374,0.62262 -0.12297,0.94483 -1.72935,6.71194 -15.86068,7.97432 -25.20556,8.43273 -8.83821,0.44285 -22.29633,1.44839 -22.34225,5.76554 -0.005,0.25139 0.0381,0.51367 0.12842,0.7814 2.10915,6.3119 51.4369,9.35111 82.99639,25.7309 18.1613,9.41648 27.19331,25.23358 31.33613,41.57447 V 346.705 c 0,-9.82664 -7.97199,-17.80096 -17.79862,-17.80096 H 106.3747 z"
			 id="path12"
			 style="fill:#840010" />
	</g>
</svg>
