<?xml version="1.0" encoding="UTF-8" standalone="no"?>
<!-- Created with Inkscape (http://www.inkscape.org/) -->

<svg
	 xmlns:dc="http://purl.org/dc/elements/1.1/"
	 xmlns:cc="http://creativecommons.org/ns#"
	 xmlns:rdf="http://www.w3.org/1999/02/22-rdf-syntax-ns#"
	 xmlns:svg="http://www.w3.org/2000/svg"
	 xmlns="http://www.w3.org/2000/svg"
	 xmlns:sodipodi="http://sodipodi.sourceforge.net/DTD/sodipodi-0.dtd"
	 xmlns:inkscape="http://www.inkscape.org/namespaces/inkscape"
	 viewBox="0 0 200 200"
	 version="1.1"
	 id="svg3027">
	<defs
		 id="defs3027" />
	<metadata
		 id="metadata3030">
		<rdf:RDF>
			<cc:Work
				 rdf:about="">
				<dc:format>image/svg+xml</dc:format>
				<dc:type
					 rdf:resource="http://purl.org/dc/dcmitype/StillImage" />
				<dc:title />
			</cc:Work>
		</rdf:RDF>
	</metadata>
	<g
		 id="g2983">
		<path
			 style="fill:#00bff3;fill-opacity:1"
			 sodipodi:nodetypes="csscsscsscscc"
			 inkscape:connector-curvature="0"
			 d="M 188.99824,11.001579 C 181.66602,3.6676485 172.83196,-1.5e-6 162.50291,-1.5e-6 l -125.002625,0 c -10.329054,0 -19.163114,3.66765 -26.498534,11.0015805 C 3.667711,18.336878 9.9999999e-7,27.170342 9.9999999e-7,37.499682 l 0,124.999268 C 9.9999999e-7,172.82738 3.667711,181.66175 11.001751,188.99705 18.337171,196.33235 27.171231,200 37.500285,200 l 125.001255,0 c 10.32905,0 19.16311,-3.66765 26.49534,-11.00295 C 196.33229,181.66175 200,172.82783 200,162.49895 l 0,-124.999268 c -4.6e-4,-10.32934 -3.66816,-19.164172 -11.00176,-26.498103 z"
			 id="path5-3" />
		<path
			 sodipodi:nodetypes="cccscccccsccccsscccccccccccccccccscc"
			 id="path1"
			 d="m 66.0646,32.682596 c -2.976156,0.623053 -5.674091,3.08 -6.688511,6.091416 -0.462391,1.373465 -0.603949,12.936673 -0.195934,16.008334 2.250241,16.937049 14.199436,30.977274 29.904578,35.137335 l 1.662457,0.440345 0,9.666124 0,9.66616 -1.674217,0.44279 c -15.70367,4.15172 -27.626903,18.16795 -29.894773,35.14222 -0.272338,2.0357 -0.256664,14.45561 0.01904,15.47984 1.991126,7.39483 12.002097,9.19736 16.313502,2.93697 1.492978,-2.16746 1.523347,-2.34431 1.669306,-9.6152 0.164092,-8.18296 0.503049,-10.13294 2.463804,-14.17151 8.200097,-16.89295 31.819748,-17.20057 40.431308,-0.52705 2.16794,4.19729 2.62397,6.62727 2.62838,14.00595 0.004,7.31941 0.34043,8.83538 2.47458,11.16792 4.54259,4.96484 12.81127,3.41847 15.35098,-2.87133 0.60495,-1.49787 0.67596,-14.65103 0.0971,-17.92795 -2.90024,-16.41783 -13.84724,-28.92932 -29.31043,-33.50082 l -2.10476,-0.6221 0,-9.62203 0,-9.622066 1.87357,-0.538311 c 15.48127,-4.451007 26.61249,-17.062433 29.52496,-33.450874 0.41585,-2.338889 0.62305,-15.027222 0.27332,-16.712695 -1.62328,-7.818526 -12.30775,-9.762145 -16.63091,-3.02514 -1.34897,2.102809 -1.40479,2.462825 -1.55666,10.078074 -0.1484,7.431075 -0.23656,8.136906 -1.41361,11.263435 C 114.07245,77.155431 87.942941,78.169355 79.376947,59.629125 77.672855,55.940281 77.338799,53.865409 77.179123,45.973899 77.028744,38.549674 76.983688,38.314564 75.277638,36.067754 73.226267,33.366388 69.44093,31.975785 66.064585,32.682596 M 96.869916,134.16721 c -12.175003,2.56765 -16.925288,17.37739 -8.454318,26.35727 10.13881,10.74766 27.904142,3.32784 27.343782,-11.42067 -0.36885,-9.71413 -9.48245,-16.92088 -18.889464,-14.9366"
			 inkscape:connector-curvature="0"
			 style="fill:#ffffff;fill-opacity:1;fill-rule:evenodd;stroke:none;display:block" />
	</g>
</svg>
